<?xml version="1.0" encoding="UTF-8"?>
<!-- Do not edit this file with editors other than draw.io -->
<!DOCTYPE svg PUBLIC "-//W3C//DTD SVG 1.1//EN" "http://www.w3.org/Graphics/SVG/1.1/DTD/svg11.dtd">
<svg xmlns="http://www.w3.org/2000/svg" xmlns:xlink="http://www.w3.org/1999/xlink" version="1.1" width="1482px" height="981px" viewBox="-0.5 -0.5 1482 981" content="&lt;mxfile host=&quot;app.diagrams.net&quot; agent=&quot;Mozilla/5.0 (X11; Linux x86_64) AppleWebKit/537.36 (KHTML, like Gecko) Chrome/131.0.0.0 Safari/537.36&quot; version=&quot;24.7.16&quot; scale=&quot;1&quot; border=&quot;0&quot;&gt;&#10;  &lt;diagram name=&quot;Page-1&quot; id=&quot;6OobZ0_e2nxCdg1_ShDP&quot;&gt;&#10;    &lt;mxGraphModel dx=&quot;1626&quot; dy=&quot;955&quot; grid=&quot;1&quot; gridSize=&quot;10&quot; guides=&quot;1&quot; tooltips=&quot;1&quot; connect=&quot;1&quot; arrows=&quot;1&quot; fold=&quot;1&quot; page=&quot;1&quot; pageScale=&quot;1&quot; pageWidth=&quot;827&quot; pageHeight=&quot;1169&quot; math=&quot;0&quot; shadow=&quot;0&quot;&gt;&#10;      &lt;root&gt;&#10;        &lt;mxCell id=&quot;0&quot; /&gt;&#10;        &lt;mxCell id=&quot;1&quot; parent=&quot;0&quot; /&gt;&#10;        &lt;mxCell id=&quot;IonxgJlxe_uOHFbJ8mtl-4&quot; value=&quot;&quot; style=&quot;ellipse;shape=cloud;whiteSpace=wrap;html=1;&quot; vertex=&quot;1&quot; parent=&quot;1&quot;&gt;&#10;          &lt;mxGeometry y=&quot;360&quot; width=&quot;1000&quot; height=&quot;830&quot; as=&quot;geometry&quot; /&gt;&#10;        &lt;/mxCell&gt;&#10;        &lt;mxCell id=&quot;IonxgJlxe_uOHFbJ8mtl-5&quot; value=&quot;&quot; style=&quot;ellipse;shape=cloud;whiteSpace=wrap;html=1;&quot; vertex=&quot;1&quot; parent=&quot;1&quot;&gt;&#10;          &lt;mxGeometry x=&quot;230&quot; y=&quot;550&quot; width=&quot;260&quot; height=&quot;200&quot; as=&quot;geometry&quot; /&gt;&#10;        &lt;/mxCell&gt;&#10;        &lt;mxCell id=&quot;IonxgJlxe_uOHFbJ8mtl-6&quot; value=&quot;&quot; style=&quot;image;points=[];aspect=fixed;html=1;align=center;shadow=0;dashed=0;image=img/lib/allied_telesis/computer_and_terminals/Personal_Computer.svg;&quot; vertex=&quot;1&quot; parent=&quot;1&quot;&gt;&#10;          &lt;mxGeometry x=&quot;340&quot; y=&quot;610&quot; width=&quot;45.6&quot; height=&quot;61.800000000000004&quot; as=&quot;geometry&quot; /&gt;&#10;        &lt;/mxCell&gt;&#10;        &lt;mxCell id=&quot;IonxgJlxe_uOHFbJ8mtl-7&quot; value=&quot;&quot; style=&quot;ellipse;shape=cloud;whiteSpace=wrap;html=1;&quot; vertex=&quot;1&quot; parent=&quot;1&quot;&gt;&#10;          &lt;mxGeometry x=&quot;300&quot; y=&quot;670&quot; width=&quot;560&quot; height=&quot;420&quot; as=&quot;geometry&quot; /&gt;&#10;        &lt;/mxCell&gt;&#10;        &lt;mxCell id=&quot;IonxgJlxe_uOHFbJ8mtl-8&quot; value=&quot;&quot; style=&quot;image;points=[];aspect=fixed;html=1;align=center;shadow=0;dashed=0;image=img/lib/allied_telesis/storage/Datacenter_Server_Rack_EoR.svg;&quot; vertex=&quot;1&quot; parent=&quot;1&quot;&gt;&#10;          &lt;mxGeometry x=&quot;440&quot; y=&quot;800&quot; width=&quot;85.8&quot; height=&quot;173.4&quot; as=&quot;geometry&quot; /&gt;&#10;        &lt;/mxCell&gt;&#10;        &lt;mxCell id=&quot;IonxgJlxe_uOHFbJ8mtl-9&quot; value=&quot;&quot; style=&quot;image;points=[];aspect=fixed;html=1;align=center;shadow=0;dashed=0;image=img/lib/allied_telesis/storage/Datacenter_Server_Rack_EoR.svg;&quot; vertex=&quot;1&quot; parent=&quot;1&quot;&gt;&#10;          &lt;mxGeometry x=&quot;600&quot; y=&quot;800&quot; width=&quot;85.8&quot; height=&quot;173.4&quot; as=&quot;geometry&quot; /&gt;&#10;        &lt;/mxCell&gt;&#10;        &lt;mxCell id=&quot;IonxgJlxe_uOHFbJ8mtl-12&quot; value=&quot;&quot; style=&quot;endArrow=none;html=1;rounded=0;entryX=0;entryY=0.5;entryDx=0;entryDy=0;entryPerimeter=0;exitX=0.875;exitY=0.5;exitDx=0;exitDy=0;exitPerimeter=0;&quot; edge=&quot;1&quot; parent=&quot;1&quot; source=&quot;IonxgJlxe_uOHFbJ8mtl-5&quot; target=&quot;IonxgJlxe_uOHFbJ8mtl-14&quot;&gt;&#10;          &lt;mxGeometry width=&quot;50&quot; height=&quot;50&quot; relative=&quot;1&quot; as=&quot;geometry&quot;&gt;&#10;            &lt;mxPoint x=&quot;690&quot; y=&quot;410&quot; as=&quot;sourcePoint&quot; /&gt;&#10;            &lt;mxPoint x=&quot;844.5100000000002&quot; y=&quot;619.74&quot; as=&quot;targetPoint&quot; /&gt;&#10;          &lt;/mxGeometry&gt;&#10;        &lt;/mxCell&gt;&#10;        &lt;mxCell id=&quot;IonxgJlxe_uOHFbJ8mtl-13&quot; value=&quot;&quot; style=&quot;endArrow=none;html=1;rounded=0;entryX=0.145;entryY=0.855;entryDx=0;entryDy=0;entryPerimeter=0;exitX=0.88;exitY=0.25;exitDx=0;exitDy=0;exitPerimeter=0;&quot; edge=&quot;1&quot; parent=&quot;1&quot; source=&quot;IonxgJlxe_uOHFbJ8mtl-7&quot; target=&quot;IonxgJlxe_uOHFbJ8mtl-14&quot;&gt;&#10;          &lt;mxGeometry width=&quot;50&quot; height=&quot;50&quot; relative=&quot;1&quot; as=&quot;geometry&quot;&gt;&#10;            &lt;mxPoint x=&quot;1060&quot; y=&quot;700&quot; as=&quot;sourcePoint&quot; /&gt;&#10;            &lt;mxPoint x=&quot;855.9499999999998&quot; y=&quot;644.0500000000002&quot; as=&quot;targetPoint&quot; /&gt;&#10;          &lt;/mxGeometry&gt;&#10;        &lt;/mxCell&gt;&#10;        &lt;mxCell id=&quot;IonxgJlxe_uOHFbJ8mtl-14&quot; value=&quot;&quot; style=&quot;sketch=0;points=[[0.5,0,0],[1,0.5,0],[0.5,1,0],[0,0.5,0],[0.145,0.145,0],[0.8555,0.145,0],[0.855,0.8555,0],[0.145,0.855,0]];verticalLabelPosition=bottom;html=1;verticalAlign=top;aspect=fixed;align=center;pointerEvents=1;shape=mxgraph.cisco19.rect;prIcon=router_with_firewall;fillColor=#FAFAFA;strokeColor=#005073;&quot; vertex=&quot;1&quot; parent=&quot;1&quot;&gt;&#10;          &lt;mxGeometry x=&quot;850&quot; y=&quot;550&quot; width=&quot;100&quot; height=&quot;100&quot; as=&quot;geometry&quot; /&gt;&#10;        &lt;/mxCell&gt;&#10;        &lt;mxCell id=&quot;IonxgJlxe_uOHFbJ8mtl-15&quot; value=&quot;&quot; style=&quot;sketch=0;points=[[0.5,0,0],[1,0.5,0],[0.5,1,0],[0,0.5,0],[0.145,0.145,0],[0.8555,0.145,0],[0.855,0.8555,0],[0.145,0.855,0]];verticalLabelPosition=bottom;html=1;verticalAlign=top;aspect=fixed;align=center;pointerEvents=1;shape=mxgraph.cisco19.rect;prIcon=router;fillColor=#FAFAFA;strokeColor=#005073;&quot; vertex=&quot;1&quot; parent=&quot;1&quot;&gt;&#10;          &lt;mxGeometry x=&quot;1100&quot; y=&quot;540&quot; width=&quot;101&quot; height=&quot;101&quot; as=&quot;geometry&quot; /&gt;&#10;        &lt;/mxCell&gt;&#10;        &lt;mxCell id=&quot;IonxgJlxe_uOHFbJ8mtl-18&quot; value=&quot;&quot; style=&quot;endArrow=none;html=1;rounded=0;exitX=1;exitY=0.5;exitDx=0;exitDy=0;exitPerimeter=0;&quot; edge=&quot;1&quot; parent=&quot;1&quot; source=&quot;IonxgJlxe_uOHFbJ8mtl-14&quot; target=&quot;IonxgJlxe_uOHFbJ8mtl-15&quot;&gt;&#10;          &lt;mxGeometry width=&quot;50&quot; height=&quot;50&quot; relative=&quot;1&quot; as=&quot;geometry&quot;&gt;&#10;            &lt;mxPoint x=&quot;1010&quot; y=&quot;560&quot; as=&quot;sourcePoint&quot; /&gt;&#10;            &lt;mxPoint x=&quot;1060&quot; y=&quot;510&quot; as=&quot;targetPoint&quot; /&gt;&#10;          &lt;/mxGeometry&gt;&#10;        &lt;/mxCell&gt;&#10;        &lt;mxCell id=&quot;IonxgJlxe_uOHFbJ8mtl-19&quot; value=&quot;&quot; style=&quot;ellipse;shape=cloud;whiteSpace=wrap;html=1;&quot; vertex=&quot;1&quot; parent=&quot;1&quot;&gt;&#10;          &lt;mxGeometry x=&quot;1111&quot; y=&quot;210&quot; width=&quot;260&quot; height=&quot;200&quot; as=&quot;geometry&quot; /&gt;&#10;        &lt;/mxCell&gt;&#10;        &lt;mxCell id=&quot;IonxgJlxe_uOHFbJ8mtl-20&quot; value=&quot;&quot; style=&quot;ellipse;shape=cloud;whiteSpace=wrap;html=1;&quot; vertex=&quot;1&quot; parent=&quot;1&quot;&gt;&#10;          &lt;mxGeometry x=&quot;1201&quot; y=&quot;690&quot; width=&quot;280&quot; height=&quot;240&quot; as=&quot;geometry&quot; /&gt;&#10;        &lt;/mxCell&gt;&#10;        &lt;mxCell id=&quot;IonxgJlxe_uOHFbJ8mtl-21&quot; value=&quot;&quot; style=&quot;endArrow=none;html=1;rounded=0;entryX=0.499;entryY=0.946;entryDx=0;entryDy=0;entryPerimeter=0;exitX=0.5;exitY=0;exitDx=0;exitDy=0;exitPerimeter=0;&quot; edge=&quot;1&quot; parent=&quot;1&quot; source=&quot;IonxgJlxe_uOHFbJ8mtl-15&quot; target=&quot;IonxgJlxe_uOHFbJ8mtl-19&quot;&gt;&#10;          &lt;mxGeometry width=&quot;50&quot; height=&quot;50&quot; relative=&quot;1&quot; as=&quot;geometry&quot;&gt;&#10;            &lt;mxPoint x=&quot;1070&quot; y=&quot;500&quot; as=&quot;sourcePoint&quot; /&gt;&#10;            &lt;mxPoint x=&quot;1120&quot; y=&quot;450&quot; as=&quot;targetPoint&quot; /&gt;&#10;          &lt;/mxGeometry&gt;&#10;        &lt;/mxCell&gt;&#10;        &lt;mxCell id=&quot;IonxgJlxe_uOHFbJ8mtl-22&quot; value=&quot;&quot; style=&quot;endArrow=none;html=1;rounded=0;entryX=0.855;entryY=0.8555;entryDx=0;entryDy=0;entryPerimeter=0;exitX=0.25;exitY=0.25;exitDx=0;exitDy=0;exitPerimeter=0;&quot; edge=&quot;1&quot; parent=&quot;1&quot; source=&quot;IonxgJlxe_uOHFbJ8mtl-20&quot; target=&quot;IonxgJlxe_uOHFbJ8mtl-15&quot;&gt;&#10;          &lt;mxGeometry width=&quot;50&quot; height=&quot;50&quot; relative=&quot;1&quot; as=&quot;geometry&quot;&gt;&#10;            &lt;mxPoint x=&quot;1120&quot; y=&quot;750&quot; as=&quot;sourcePoint&quot; /&gt;&#10;            &lt;mxPoint x=&quot;1170&quot; y=&quot;700&quot; as=&quot;targetPoint&quot; /&gt;&#10;          &lt;/mxGeometry&gt;&#10;        &lt;/mxCell&gt;&#10;      &lt;/root&gt;&#10;    &lt;/mxGraphModel&gt;&#10;  &lt;/diagram&gt;&#10;&lt;/mxfile&gt;&#10;" style="background-color: rgb(255, 255, 255);"><defs/><rect fill="#ffffff" width="100%" height="100%" x="0" y="0"/><g><g data-cell-id="0"><g data-cell-id="1"><g data-cell-id="IonxgJlxe_uOHFbJ8mtl-4"><g><path d="M 250 357.5 C 50 357.5 0 565 160 606.5 C 0 697.8 180 897 310 814 C 400 980 700 980 800 814 C 1000 814 1000 648 875 565 C 1000 399 800 233 625 316 C 500 191.5 300 191.5 250 357.5 Z" fill="rgb(255, 255, 255)" stroke="rgb(0, 0, 0)" stroke-miterlimit="10" pointer-events="all"/></g></g><g data-cell-id="IonxgJlxe_uOHFbJ8mtl-5"><g><path d="M 295 390 C 243 390 230 440 271.6 450 C 230 472 276.8 520 310.6 500 C 334 540 412 540 438 500 C 490 500 490 460 457.5 440 C 490 400 438 360 392.5 380 C 360 350 308 350 295 390 Z" fill="rgb(255, 255, 255)" stroke="rgb(0, 0, 0)" stroke-miterlimit="10" pointer-events="all"/></g></g><g data-cell-id="IonxgJlxe_uOHFbJ8mtl-6"><g><g><svg viewBox="0 0 75.601 103.382" xmlns="http://www.w3.org/2000/svg" id="svg-image-SuEN3aZMbOYeCj7zRTmF" x="339.5" y="399.5" width="45.6" height="61.8" style="font-family: initial;"><style/><g class="U V W a"><path d="M50.348 82.545l11.71-6.215.003 3.297-11.7 6.217z"/><path d="M20.45 64.58l11.71-6.215 29.9 17.965-11.71 6.215z"/><path d="M50.348 82.545l.002 3.3-29.9-17.967V64.58z"/></g><path class="X" d="M50.348 82.545l11.71-6.215.003 3.297-11.7 6.217z"/><path class="Y" d="M20.45 64.58l11.71-6.215 29.9 17.965-11.71 6.215z"/><path class="Z" d="M50.348 82.545l.002 3.3-29.9-17.967V64.58z"/><g class="U V"><path class="b c" d="M20.69 64.614l29.4 17.67v3.205"/><g class="W" stroke-width="2.668"><path d="M69.044 36.83l5.186-2.753.036 50.778L69.08 87.6z"/><path d="M14.55 4.088l5.187-2.754L74.23 34.078l-5.186 2.753z"/><path d="M69.044 36.83l.035 50.78-54.493-32.744-.037-50.778z"/></g></g><path class="X" d="M69.043 36.83l5.187-2.753.036 50.778L69.08 87.6z"/><path class="Y" d="M14.55 4.088l5.186-2.754L74.23 34.078l-5.188 2.753z"/><path class="Z" d="M69.043 36.83l.037 50.78-54.495-32.744-.035-50.778z"/><path class="R" d="M66.19 81.903L16.526 51.698V8.783L66.19 38.985z"/><g transform="translate(1 3.383)"><path fill="#c4cace" d="M46.764 27.198L63.247 37.1l.092 9.216s-.293-6.608-5.193-10.75c-6.256-5.286-11.382-8.368-11.382-8.368"/><g class="U"><path stroke-width="1.156" stroke="#636466" d="M14.184 52.532l53.9 32.38"/><path class="V b c" stroke-width=".889" d="M14.008.875L68.023 33.33l.037 50.465"/></g><g transform="translate(73 64)"><defs><filter height="13.342" width="1.29" y=".723" x=".261" filterUnits="userSpaceOnUse" id="A"><feColorMatrix values="1 0 0 0 0 0 1 0 0 0 0 0 1 0 0 0 0 0 1 0"/></filter></defs><mask id="B" height="13.342" width="1.29" y=".723" x=".261" maskUnits="userSpaceOnUse"><g filter="url(#A)"><path fill="#fff" d="M.906.723H1.6v13.342H.906z"/></g></mask><path class="U" stroke-width="1.29" stroke="#636466" mask="url(#B)" d="M.906.723v13.342"/></g><path class="U V W a" d="M48.556 90.78s1.375-.734 2.5-.766 2.516.64 2.516.64 1.375.734 2.046 1.437.72.985.766 1.235.03.828-.047.953-7.75 4.094-7.75 4.094-.453.203-1.187.093-2-1-2.407-1.578-.375-1.468-.375-1.468.016-1.047 1.39-2.6c.906-1.094 2.547-2.03 2.547-2.03z"/><path class="Y" d="M48.556 90.78s1.375-.734 2.5-.766 2.516.64 2.516.64 1.377.734 2.046 1.437.72.985.766 1.235.03.828-.047.953-7.75 4.094-7.75 4.094-.453.203-1.187.093-2-1-2.407-1.578-.375-1.468-.375-1.468.016-1.047 1.39-2.6c.906-1.094 2.547-2.03 2.547-2.03"/><path class="X" d="M48.757 98.07c.012-.1.89-2.55 3.768-4.107 2.884-1.518 3.548.12 3.5-.223l-.006.547-7.19 3.836"/><path class="Z" d="M46.462 96.506c.187-.75 1.266-2.39 1.992-3.14s1.36-1.242 2.46-1.804 2.438-.985 3.094-.657 1.57 1.15 1.945 1.64.28 1.008.28 1.008-1.382-.47-2.203-.188-2.133.938-2.976 1.758-1.172 1.9-1.758 2.578-1.71.774-1.71.774-1.148-.235-1.266-.446-.046-.773.14-1.523"/><path fill="#e1e2e3" d="M48.37 93.864l-.504-.303c-.918.996-1.445 1.975-1.7 2.524l.506.302c.252-.548.78-1.53 1.697-2.523"/><g class="U V W a"><path d="M30.4 91.095l11.71-6.215v3.297l-11.71 6.217z"/><path d="M.5 73.13l11.71-6.217 29.9 17.966-11.71 6.215z"/><path d="M30.4 91.095l.002 3.3-29.9-17.966L.5 73.13z"/></g><path class="X" d="M30.4 91.095l11.71-6.215v3.297l-11.71 6.217z"/><path class="Y" d="M.5 73.13l11.71-6.217 29.9 17.966-11.71 6.215z"/><path class="Z" d="M30.4 91.095l.002 3.3-29.9-17.966L.5 73.13z"/><path class="S" d="M7.657 72.784l1.458-.773v.28l-1.458.775z"/><path class="R" d="M6.4 72.028l1.458-.773L9.116 72l-1.458.774z"/><path class="T" d="M7.657 72.784v.283L6.4 72.31v-.283z"/><path class="S" d="M9.518 73.9l1.458-.773v.283l-1.458.773z"/><path class="R" d="M8.26 73.147l1.458-.775 1.257.755-1.458.774z"/><path class="T" d="M9.518 73.9v.283l-1.257-.756v-.28z"/><path class="S" d="M11.47 75.075l1.457-.773.001.283-1.458.773z"/><path class="R" d="M10.214 74.32l1.458-.773 1.256.755-1.457.774z"/><path class="T" d="M11.47 75.075v.283l-1.257-.756v-.283z"/><path class="S" d="M13.338 76.198l1.457-.775.001.283-1.458.773z"/><path class="R" d="M12.08 75.442l1.458-.773 1.256.753-1.457.776z"/><path class="T" d="M13.338 76.198v.28l-1.257-.754v-.283z"/><path class="S" d="M15.266 77.356l1.458-.775v.283l-1.458.773z"/><path class="R" d="M14.01 76.6l1.458-.773 1.257.753-1.458.776z"/><path class="T" d="M15.266 77.356v.28l-1.257-.754V76.6z"/><path class="S" d="M17.132 78.477l1.46-.773v.28l-1.46.775z"/><path class="R" d="M15.87 77.717l1.46-.773 1.264.76-1.46.774z"/><path class="T" d="M17.132 78.477v.283L15.868 78v-.283z"/><path class="S" d="M19.085 79.65l1.457-.773.002.28-1.46.773z"/><path class="R" d="M17.828 78.895l1.46-.773 1.256.755-1.457.774z"/><path class="T" d="M19.085 79.65v.28l-1.256-.754-.002-.283z"/><path class="S" d="M20.947 80.768l1.457-.773v.283l-1.457.773z"/><path class="R" d="M19.69 80.014l1.457-.775 1.258.755-1.457.774z"/><path class="T" d="M20.947 80.768v.283l-1.258-.756v-.28z"/><path class="S" d="M22.777 81.87l1.457-.774v.283l-1.457.772z"/><path class="R" d="M21.52 81.114l1.46-.775 1.256.755-1.457.775z"/><path class="T" d="M22.777 81.87v.28l-1.258-.755v-.28z"/><path class="S" d="M24.636 82.986l1.46-.773v.28l-1.46.775z"/><path class="R" d="M23.38 82.23l1.457-.772 1.258.754-1.46.774z"/><path class="T" d="M24.636 82.986v.283l-1.256-.756v-.283z"/><path class="S" d="M26.59 84.16l1.46-.775v.283l-1.46.773z"/><path class="R" d="M25.334 83.404l1.457-.773 1.258.753-1.46.776z"/><path class="T" d="M26.59 84.16v.28l-1.256-.754v-.283z"/><path class="S" d="M28.457 85.28l1.46-.773v.283l-1.46.773z"/><path class="R" d="M27.2 84.525l1.457-.773 1.258.755-1.46.774z"/><path class="T" d="M28.457 85.28v.283l-1.256-.756v-.283z"/><path class="S" d="M30.384 86.44l1.46-.773v.283l-1.46.773z"/><path class="R" d="M29.128 85.685l1.457-.775 1.258.755-1.46.774z"/><path class="T" d="M30.384 86.44v.283l-1.256-.756v-.28z"/><path class="S" d="M32.21 87.535l1.457-.773.002.283-1.46.773z"/><path class="R" d="M30.95 86.78l1.46-.775 1.256.755-1.457.774z"/><path class="T" d="M32.21 87.535v.283l-1.256-.756-.002-.28z"/><path class="S" d="M9.657 71.66l1.458-.773v.28l-1.458.775z"/><path class="R" d="M8.4 70.903l1.458-.773 1.257.755-1.458.774z"/><path class="T" d="M9.657 71.66v.283L8.4 71.186v-.283z"/><path class="S" d="M11.518 72.776l1.458-.773v.283l-1.458.773z"/><path class="R" d="M10.26 72.022l1.458-.775 1.257.755-1.458.774z"/><path class="T" d="M11.518 72.776v.283l-1.257-.756v-.28z"/><path class="S" d="M13.47 73.95l1.457-.773.001.283-1.458.773z"/><path class="R" d="M12.214 73.194l1.458-.773 1.256.755-1.457.774z"/><path class="T" d="M13.47 73.95v.283l-1.257-.756v-.283z"/><path class="S" d="M15.338 75.073l1.456-.775.002.283-1.458.773z"/><path class="R" d="M14.08 74.317l1.458-.773 1.255.753-1.457.776z"/><path class="T" d="M15.338 75.073v.28l-1.256-.754v-.283z"/><path class="S" d="M17.265 76.23l1.46-.775v.283l-1.46.773z"/><path class="R" d="M16.01 75.475l1.457-.773 1.258.753-1.46.776z"/><path class="T" d="M17.265 76.23v.28l-1.256-.754v-.283z"/><path class="S" d="M19.132 77.352l1.46-.773v.28l-1.46.775z"/><path class="R" d="M17.87 76.592l1.46-.773 1.264.76-1.46.774z"/><path class="T" d="M19.132 77.352v.283l-1.264-.76v-.283z"/><path class="S" d="M21.085 78.526l1.457-.773.002.28-1.46.773z"/><path class="R" d="M19.828 77.77l1.46-.773 1.256.755-1.457.774z"/><path class="T" d="M21.085 78.526v.28l-1.256-.754-.002-.283z"/><path class="S" d="M22.947 79.643l1.457-.773v.283l-1.457.773z"/><path class="R" d="M21.69 78.89l1.457-.775 1.258.755-1.457.774z"/><path class="T" d="M22.947 79.643v.283l-1.258-.756v-.28z"/><path class="S" d="M24.777 80.743l1.457-.773v.283l-1.457.773z"/><path class="R" d="M23.52 79.99l1.46-.775 1.256.755-1.457.774z"/><path class="T" d="M24.777 80.743v.283l-1.258-.756v-.28z"/><path class="S" d="M26.636 81.86l1.46-.774v.283l-1.46.774z"/><path class="R" d="M25.38 81.106l1.457-.773 1.258.753-1.46.775z"/><path class="T" d="M26.636 81.86v.283l-1.256-.755v-.283z"/><path class="S" d="M28.59 83.035l1.46-.775v.283l-1.46.773z"/><path class="R" d="M27.334 82.28l1.457-.772 1.258.752-1.46.776z"/><path class="T" d="M28.59 83.035v.28l-1.256-.754v-.283z"/><path class="S" d="M30.457 84.156l1.46-.773v.283l-1.46.773z"/><path class="R" d="M29.2 83.4l1.457-.773 1.258.755-1.46.774z"/><path class="T" d="M30.457 84.156v.283l-1.256-.756V83.4z"/><path class="S" d="M32.384 85.314l1.46-.773v.283l-1.46.773z"/><path class="R" d="M31.128 84.56l1.457-.775 1.258.755-1.46.774z"/><path class="T" d="M32.384 85.314v.283l-1.256-.756v-.28z"/><path class="S" d="M34.21 86.4l1.457-.773.002.283-1.46.773z"/><path class="R" d="M32.95 85.656l1.46-.775 1.256.755-1.457.774z"/><path class="T" d="M34.21 86.4v.283l-1.256-.756-.002-.28z"/><path class="S" d="M11.782 70.534l1.458-.773v.28l-1.458.775z"/><path class="R" d="M10.526 69.778l1.458-.773 1.257.755-1.458.774z"/><path class="T" d="M11.782 70.534v.283l-1.257-.756v-.283z"/><path class="S" d="M13.643 71.65l1.458-.773v.283l-1.458.773z"/><path class="R" d="M12.386 70.897l1.458-.775 1.257.755-1.458.774z"/><path class="T" d="M13.643 71.65v.283l-1.257-.756v-.28z"/><path class="S" d="M15.595 72.825l1.457-.773.002.283-1.46.773z"/><path class="R" d="M14.34 72.07l1.458-.773 1.255.755-1.457.774z"/><path class="T" d="M15.595 72.825v.283l-1.256-.756v-.283z"/><path class="S" d="M17.462 73.948l1.457-.775v.283l-1.46.773z"/><path class="R" d="M16.207 73.192l1.457-.773 1.256.753-1.457.776z"/><path class="T" d="M17.462 73.948v.28l-1.256-.754v-.283z"/><path class="S" d="M19.4 75.106l1.46-.775v.283l-1.46.773z"/><path class="R" d="M18.134 74.35l1.457-.773 1.258.753-1.46.776z"/><path class="T" d="M19.4 75.106v.28l-1.256-.754v-.283z"/><path class="S" d="M21.257 76.227l1.46-.773v.28l-1.46.775z"/><path class="R" d="M19.994 75.467l1.46-.773 1.264.76-1.46.774z"/><path class="T" d="M21.257 76.227v.283l-1.264-.76v-.283z"/><path class="S" d="M23.2 77.4l1.457-.773.002.28-1.46.773z"/><path class="R" d="M21.953 76.645l1.46-.773 1.256.755-1.457.774z"/><path class="T" d="M23.2 77.4v.28l-1.256-.754-.002-.283z"/><path class="S" d="M25.072 78.518l1.457-.773v.283l-1.457.773z"/><path class="R" d="M23.814 77.764l1.457-.775 1.258.755-1.457.774z"/><path class="T" d="M25.072 78.518v.283l-1.258-.756v-.28z"/><path class="S" d="M26.902 79.618l1.457-.773v.283l-1.457.773z"/><path class="R" d="M25.644 78.864l1.46-.775 1.256.755-1.457.774z"/><path class="T" d="M26.902 79.618v.283l-1.258-.756v-.28z"/><path class="S" d="M28.76 80.737l1.46-.775v.283l-1.46.773z"/><path class="R" d="M27.505 79.98l1.457-.773 1.258.753-1.46.776z"/><path class="T" d="M28.76 80.737v.28l-1.256-.754v-.283z"/><path class="S" d="M30.714 81.9l1.46-.774v.283l-1.46.772z"/><path class="R" d="M29.46 81.155l1.457-.773 1.258.753-1.46.775z"/><path class="T" d="M30.714 81.9v.28l-1.256-.755v-.28z"/><path class="S" d="M32.582 83.03l1.46-.773v.283l-1.46.773z"/><path class="R" d="M31.326 82.275l1.457-.772 1.258.754-1.46.774z"/><path class="T" d="M32.582 83.03v.283l-1.256-.756v-.283z"/><path class="S" d="M34.51 84.19l1.46-.773v.283l-1.46.773z"/><path class="R" d="M33.253 83.435l1.457-.775 1.258.755-1.46.774z"/><path class="T" d="M34.51 84.19v.283l-1.256-.756v-.28z"/><path class="S" d="M36.334 85.285l1.457-.773.002.283-1.46.773z"/><path class="R" d="M35.076 84.53l1.46-.775 1.256.755-1.457.774z"/><path class="T" d="M36.334 85.285v.283l-1.256-.756-.002-.28z"/><path class="S" d="M6.266 74.46l1.458-.775v.275l-1.458.773z"/><path class="R" d="M5.008 73.705l1.458-.773 1.258.753-1.458.776z"/><path class="T" d="M6.266 74.46v.273L5.01 73.98l-.001-.274z"/><path class="S" d="M8.034 75.524l1.458-.775v.275l-1.458.773z"/><path class="R" d="M6.777 74.768l1.458-.773 1.257.753-1.458.776z"/><path class="T" d="M8.034 75.524v.273l-1.257-.753v-.276z"/><path class="S" d="M9.895 76.64l1.458-.773v.273l-1.458.775z"/><path class="R" d="M8.638 75.885l1.458-.773 1.257.755-1.458.774z"/><path class="T" d="M9.895 76.64v.275l-1.257-.755v-.276z"/><path class="S" d="M25.453 85.96l1.46-.773v.273l-1.46.775z"/><path class="R" d="M24.195 85.204l1.46-.773 1.258.755-1.46.774z"/><path class="T" d="M25.453 85.96v.275l-1.256-.755-.002-.276z"/><path class="S" d="M27.222 87.023l1.457-.773v.273l-1.457.775z"/><path class="R" d="M25.964 86.267l1.46-.773 1.255.755-1.457.774z"/><path class="T" d="M27.222 87.023v.275l-1.258-.755v-.276z"/><path class="S" d="M29.082 88.14l1.46-.773v.275l-1.46.773z"/><path class="R" d="M27.826 87.386l1.457-.775 1.258.755-1.46.774z"/><path class="T" d="M29.082 88.14v.275l-1.256-.755v-.274z"/><path class="S" d="M23.466 84.806l1.46-.773v.275l-1.46.773z"/><path class="R" d="M10.572 77.06l1.458-.773 12.895 7.747-1.46.773z"/><path class="T" d="M23.466 84.806v.275l-12.894-7.747v-.275z"/><path class="U V b c" d="M.742 73.164l29.4 17.67v3.205"/></g></svg></g></g></g><g data-cell-id="IonxgJlxe_uOHFbJ8mtl-7"><g><path d="M 440 565 C 328 565 300 670 389.6 691 C 300 737.2 400.8 838 473.6 796 C 524 880 692 880 748 796 C 860 796 860 712 790 670 C 860 586 748 502 650 544 C 580 481 468 481 440 565 Z" fill="rgb(255, 255, 255)" stroke="rgb(0, 0, 0)" stroke-miterlimit="10" pointer-events="all"/></g></g><g data-cell-id="IonxgJlxe_uOHFbJ8mtl-8"><g><g><svg viewBox="0 0 142.398 288.854" xmlns="http://www.w3.org/2000/svg" id="svg-image-26tC7W7htmuS6hau0lxg" x="439.5" y="589.5" width="85.8" height="173.4" style="font-family: initial;"><style/><path fill="#e7ebf0" d="M.976 32.926c0-1.228.06-1.916.306-2.58s1.627-1.4 1.627-1.4L55.914.97l82.568 47.6s2.17.975 2.602 2.545c.492 1.784.3 5.347.3 5.347L141.27 253.3s.163 4.3-.888 5.52c-.573.678-3.044 2.162-3.044 2.162l-50.77 26.012s-3.595 2.204-7.228-.288c-3.35-2.297-67.1-38.225-67.1-38.225S.79 244.81.976 225.947V32.926"/><g class="J K"><path stroke-width="1.941" stroke="#b8c6d3" d="M.976 32.926c0-1.228.06-1.916.306-2.58s1.627-1.4 1.627-1.4L55.914.97l82.568 47.6s2.17.975 2.602 2.545c.492 1.784.3 5.347.3 5.347L141.27 253.3s.163 4.3-.888 5.52c-.573.678-3.044 2.162-3.044 2.162l-50.77 26.012s-3.595 2.204-7.228-.288c-3.35-2.297-67.1-38.225-67.1-38.225S.79 244.81.976 225.947V32.926z"/><g class="L T"><path d="M86.917 193.53l37.365-20.108.04 78.274-37.367 20.543z"/><path d="M17.544 151.275L54.9 131.167l69.372 42.255-37.365 20.11z"/><path d="M86.917 193.53l.04 78.71-69.373-41.71-.04-79.256z"/></g></g><path class="M" d="M86.917 193.53l37.365-20.108.04 78.274-37.367 20.543z"/><path class="N" d="M17.544 151.275L54.9 131.167l69.372 42.255-37.365 20.11z"/><path class="O" d="M86.917 193.53l.04 78.71-69.373-41.71-.04-79.256z"/><path class="J K P Q R" d="M17.544 151.148l69.412 41.625v79.467"/><path class="S" d="M24.082 181.463v-14.3l1.367.823v14.3zm-3.556-2.136v-14.3l1.373.825v14.3zm6.944 4.173v-14.3l1.373.824v14.298zm3.22 1.93v-14.297l1.37.823v14.3zm3.33 2.004v-14.297l1.367.82v14.3zm7.23 4.242v-14.3l1.368.822v14.3zm-3.557-2.136v-14.3l1.373.825v14.3zm6.945 4.174v-14.3l1.373.826v14.297zm3.218 1.93v-14.298l1.37.823v14.3zm3.332 2.004V183.35l1.368.822v14.296zm6.875 4.137v-14.3l1.37.824v14.3zm-3.553-2.137v-14.3l1.37.825v14.3zm6.946 4.174v-14.3l1.37.825v14.3zm3.214 1.93v-14.297l1.37.823v14.298zm3.333 2.004V193.46l1.37.822v14.297zm7.11 4.52v-14.3l1.37.822v14.3zm-3.554-2.137v-14.3l1.37.825v14.3zm6.946 4.174v-14.3l1.37.825v14.297zm3.216 1.93v-14.297l1.37.823v14.3zm-57.767-16.323v-14.3l1.368.82v14.3zm-3.556-2.136v-14.3l1.373.825v14.3zm6.946 4.172v-14.3l1.373.825v14.298zm3.217 1.932v-14.297l1.37.82v14.3zm3.332 2.003v-14.297l1.368.822v14.297zm7.228 4.242v-14.3l1.368.822v14.3zM37.565 208v-14.3l1.373.825v14.3zm6.935 4.173v-14.3l1.373.826v14.297zm3.228 1.93v-14.298l1.37.823v14.3zm3.332 2.004V201.8l1.367.823v14.296zm6.875 4.136v-14.3l1.37.823v14.3zm-3.553-2.136v-14.3l1.37.825v14.3zm6.945 4.173v-14.3l1.37.825v14.298zm3.216 1.932v-14.297l1.37.82v14.3zm3.332 2.003v-14.297l1.37.823v14.297zm7.108 4.52v-14.3l1.37.822v14.3zM71.43 228.6v-14.3l1.37.825v14.3zm6.945 4.173v-14.3l1.37.825v14.298zm3.215 1.93v-14.297l1.37.823v14.3zM23.953 218.38v-14.3l1.368.825v14.298zm-3.556-2.135v-14.3l1.373.822v14.3zm6.946 4.17v-14.297l1.373.823v14.3zm3.217 1.93V208.05l1.37.823v14.3zm3.332 2.004v-14.297l1.368.82v14.3zm7.228 4.242v-14.3l1.368.825v14.297zm-3.555-2.134V212.16l1.373.822v14.3zm6.935 4.172v-14.297l1.373.822v14.3zm3.228 1.93v-14.298l1.37.823v14.3zm3.332 2.004v-14.297l1.367.822v14.296zm6.875 4.136v-14.3l1.37.826v14.297zm-3.553-2.132v-14.3l1.37.822v14.3zm6.945 4.17V226.44l1.37.82v14.3zm3.216 1.932v-14.297l1.37.823v14.298zm3.332 2.003v-14.297l1.37.822v14.297zm7.108 4.52v-14.3l1.37.826v14.297zm-3.553-2.133v-14.3l1.37.82v14.3zm6.945 4.17v-14.297l1.37.823v14.3zm3.215 1.93v-14.297l1.37.823v14.3zm.904 6.14l-62.87-37.86v-1.5l62.87 37.862zm0 3.567l-62.87-37.86v-1.5l62.87 37.862z"/><g class="J K L T"><path d="M87.415 108.543l37.364-20.107.04 78.272-37.366 20.545z"/><path d="M18.04 66.288L55.407 46.18l69.372 42.255-37.364 20.108z"/><path d="M87.415 108.543l.038 78.7-69.373-41.71-.04-79.256z"/></g><path class="M" d="M87.415 108.543l37.364-20.107.04 78.272-37.366 20.545z"/><path class="N" d="M18.04 66.288L55.407 46.18l69.372 42.255-37.364 20.108z"/><path class="O" d="M87.415 108.543l.038 78.7-69.373-41.71-.04-79.256z"/><path class="J K P Q R" d="M18.04 66.16l69.412 41.625v79.468"/><path class="S" d="M24.58 96.475v-14.3l1.367.822v14.3zm-3.557-2.135v-14.3l1.372.825v14.3zm6.945 4.172v-14.3l1.373.824v14.298zm3.218 1.93V86.146l1.37.822v14.3zm3.332 2.004V88.15l1.367.822v14.297zm7.228 4.243V92.4l1.368.822v14.3zm-3.546-2.137v-14.3l1.373.824v14.3zm6.936 4.173v-14.3l1.373.825v14.297zm3.217 1.93V96.36l1.37.822v14.3zm3.332 2.003V98.363l1.368.823v14.297zm6.875 4.138v-14.3l1.37.822v14.3zm-3.552-2.136v-14.3l1.37.825v14.3zm6.944 4.173v-14.3l1.37.825v14.297zm3.216 1.93v-14.297l1.37.822v14.3zm3.332 2.005v-14.3l1.37.823V123.6zm7.108 4.53V113l1.37.823v14.3zm-3.553-2.146v-14.3l1.37.825v14.3zM79 129.327v-14.3l1.37.825v14.298zm3.216 1.93V116.96l1.37.823v14.3zM24.45 114.934v-14.3l1.367.822v14.3zm-3.556-2.134V98.5l1.373.825v14.3zm6.946 4.17v-14.3l1.372.824v14.297zm3.217 1.932v-14.298l1.37.823v14.3zm3.333 2.004v-14.298l1.368.823v14.297zm7.228 4.24v-14.3l1.367.823v14.3zM38.062 123v-14.3l1.372.824v14.3zm6.945 4.175v-14.3l1.373.825v14.297zm3.218 1.93v-14.298l1.37.823v14.3zm3.332 2.002v-14.296l1.367.822v14.297zm6.875 4.138v-14.3l1.37.823v14.3zm-3.552-2.136v-14.3l1.37.825v14.3zm6.944 4.174v-14.3l1.37.826v14.297zm3.216 1.93v-14.298l1.37.823v14.3zm3.332 2.003V126.93l1.37.823v14.296zm7.108 4.523v-14.3l1.37.822v14.3zm-3.552-2.137v-14.3l1.37.824v14.3zm6.944 4.173v-14.3l1.37.825v14.296zm3.216 1.93V135.42l1.37.822v14.3zM24.45 133.4v-14.3l1.367.826v14.297zm-3.556-2.132v-14.3l1.373.822v14.3zm6.946 4.17v-14.296l1.372.82v14.3zm3.217 1.932v-14.297l1.37.822v14.3zm3.333 2.003v-14.297l1.368.822v14.297zm7.228 4.242v-14.3l1.367.825v14.296zm-3.556-2.135v-14.3l1.372.82v14.302zm6.945 4.172v-14.298l1.373.823v14.3zm3.218 1.93v-14.298l1.37.823v14.3zm3.332 2.004V135.28l1.367.823V150.4zm6.875 4.137v-14.3l1.37.826v14.297zm-3.552-2.134v-14.3l1.37.823v14.3zm6.944 4.17v-14.297l1.37.82v14.3zm3.216 1.93v-14.297l1.37.823v14.3zm3.332 2.005v-14.298l1.37.823v14.297zm7.108 4.52v-14.3l1.37.824v14.3zm-3.552-2.133v-14.3l1.37.82v14.3zm6.944 4.17v-14.297l1.37.822v14.3zm3.216 1.93v-14.297l1.37.823V169zm.902 6.14l-62.87-37.86v-1.5L83 172.807zm0 3.567l-62.87-37.86v-1.5L83 176.382zm-51.808 40.67l-3.234-1.937v-2.1l3.234 1.94z"/><g class="J K L U"><path d="M86.686 93.25l36.936-19.607.007 10.557-36.938 19.608z"/><path d="M18.21 52.103l36.938-19.605 68.475 41.144L86.687 93.25z"/><path d="M86.686 93.25l.005 10.558L18.216 62.66l-.008-10.557z"/></g><path class="M" d="M86.686 93.25l36.936-19.604.007 10.554-36.938 19.608z"/><path class="N" d="M18.21 52.104l36.938-19.606 68.475 41.147L86.687 93.25z"/><path class="O" d="M86.686 93.25l.005 10.558L18.216 62.66l-.008-10.557z"/><path class="J K P Q R" d="M18.54 52.1l68.13 40.937v10.478"/><path class="S" d="M81.322 99.026l-1.918-1.15V95.64l1.918 1.152z"/><g class="J K L U"><path d="M86.95 76.393l36.938-19.608.005 10.558L86.958 86.95z"/><path d="M18.474 35.25L55.41 15.642l68.478 41.143-36.938 19.61z"/><path d="M86.95 76.393l.007 10.558L18.48 45.806l-.007-10.558z"/></g><path class="M" d="M86.95 76.393l36.938-19.605.005 10.558-36.936 19.608z"/><path class="N" d="M18.474 35.25L55.41 15.642l68.478 41.146L86.95 76.394z"/><path class="O" d="M86.95 76.393l.007 10.56L18.48 45.806l-.007-10.557z"/><path class="J K P Q R" d="M18.805 35.255l68.133 40.938V86.67"/><path class="S" d="M81.587 82.173l-1.918-1.15v-2.24l1.918 1.152zm-37.2-9.208l-11.4-6.85V63.43l11.4 6.848zm-.043 4.06l-11.4-6.85V67.49l11.4 6.848zm10.333 6.17l-8.754-5.26v-2.063l8.754 5.26zm-22.84-17.818l-11.398-6.85v-2.7l11.398 6.847zm-.04 4.06l-11.398-6.85V59.9l11.398 6.85zM59.3 86l-3.233-1.936v-2.05L59.3 83.96zM44.098 55.1l-11.4-6.848v-2.687l11.4 6.85zm-.044 4.06l-11.4-6.85v-2.684l11.4 6.85zm10.334 6.172l-8.754-5.26V58l8.754 5.26zm-22.84-17.82l-11.398-6.85v-2.7l11.398 6.85zm-.04 4.06l-11.398-6.85v-2.686l11.398 6.848zm27.517 16.573L55.8 66.198v-2.05l3.234 1.935z"/></svg></g></g></g><g data-cell-id="IonxgJlxe_uOHFbJ8mtl-9"><g><g><svg viewBox="0 0 142.398 288.854" xmlns="http://www.w3.org/2000/svg" id="svg-image-WX4QF7MM8XFIEhuXp4gj" x="599.5" y="589.5" width="85.8" height="173.4" style="font-family: initial;"><style/><path fill="#e7ebf0" d="M.976 32.926c0-1.228.06-1.916.306-2.58s1.627-1.4 1.627-1.4L55.914.97l82.568 47.6s2.17.975 2.602 2.545c.492 1.784.3 5.347.3 5.347L141.27 253.3s.163 4.3-.888 5.52c-.573.678-3.044 2.162-3.044 2.162l-50.77 26.012s-3.595 2.204-7.228-.288c-3.35-2.297-67.1-38.225-67.1-38.225S.79 244.81.976 225.947V32.926"/><g class="J K"><path stroke-width="1.941" stroke="#b8c6d3" d="M.976 32.926c0-1.228.06-1.916.306-2.58s1.627-1.4 1.627-1.4L55.914.97l82.568 47.6s2.17.975 2.602 2.545c.492 1.784.3 5.347.3 5.347L141.27 253.3s.163 4.3-.888 5.52c-.573.678-3.044 2.162-3.044 2.162l-50.77 26.012s-3.595 2.204-7.228-.288c-3.35-2.297-67.1-38.225-67.1-38.225S.79 244.81.976 225.947V32.926z"/><g class="L T"><path d="M86.917 193.53l37.365-20.108.04 78.274-37.367 20.543z"/><path d="M17.544 151.275L54.9 131.167l69.372 42.255-37.365 20.11z"/><path d="M86.917 193.53l.04 78.71-69.373-41.71-.04-79.256z"/></g></g><path class="M" d="M86.917 193.53l37.365-20.108.04 78.274-37.367 20.543z"/><path class="N" d="M17.544 151.275L54.9 131.167l69.372 42.255-37.365 20.11z"/><path class="O" d="M86.917 193.53l.04 78.71-69.373-41.71-.04-79.256z"/><path class="J K P Q R" d="M17.544 151.148l69.412 41.625v79.467"/><path class="S" d="M24.082 181.463v-14.3l1.367.823v14.3zm-3.556-2.136v-14.3l1.373.825v14.3zm6.944 4.173v-14.3l1.373.824v14.298zm3.22 1.93v-14.297l1.37.823v14.3zm3.33 2.004v-14.297l1.367.82v14.3zm7.23 4.242v-14.3l1.368.822v14.3zm-3.557-2.136v-14.3l1.373.825v14.3zm6.945 4.174v-14.3l1.373.826v14.297zm3.218 1.93v-14.298l1.37.823v14.3zm3.332 2.004V183.35l1.368.822v14.296zm6.875 4.137v-14.3l1.37.824v14.3zm-3.553-2.137v-14.3l1.37.825v14.3zm6.946 4.174v-14.3l1.37.825v14.3zm3.214 1.93v-14.297l1.37.823v14.298zm3.333 2.004V193.46l1.37.822v14.297zm7.11 4.52v-14.3l1.37.822v14.3zm-3.554-2.137v-14.3l1.37.825v14.3zm6.946 4.174v-14.3l1.37.825v14.297zm3.216 1.93v-14.297l1.37.823v14.3zm-57.767-16.323v-14.3l1.368.82v14.3zm-3.556-2.136v-14.3l1.373.825v14.3zm6.946 4.172v-14.3l1.373.825v14.298zm3.217 1.932v-14.297l1.37.82v14.3zm3.332 2.003v-14.297l1.368.822v14.297zm7.228 4.242v-14.3l1.368.822v14.3zM37.565 208v-14.3l1.373.825v14.3zm6.935 4.173v-14.3l1.373.826v14.297zm3.228 1.93v-14.298l1.37.823v14.3zm3.332 2.004V201.8l1.367.823v14.296zm6.875 4.136v-14.3l1.37.823v14.3zm-3.553-2.136v-14.3l1.37.825v14.3zm6.945 4.173v-14.3l1.37.825v14.298zm3.216 1.932v-14.297l1.37.82v14.3zm3.332 2.003v-14.297l1.37.823v14.297zm7.108 4.52v-14.3l1.37.822v14.3zM71.43 228.6v-14.3l1.37.825v14.3zm6.945 4.173v-14.3l1.37.825v14.298zm3.215 1.93v-14.297l1.37.823v14.3zM23.953 218.38v-14.3l1.368.825v14.298zm-3.556-2.135v-14.3l1.373.822v14.3zm6.946 4.17v-14.297l1.373.823v14.3zm3.217 1.93V208.05l1.37.823v14.3zm3.332 2.004v-14.297l1.368.82v14.3zm7.228 4.242v-14.3l1.368.825v14.297zm-3.555-2.134V212.16l1.373.822v14.3zm6.935 4.172v-14.297l1.373.822v14.3zm3.228 1.93v-14.298l1.37.823v14.3zm3.332 2.004v-14.297l1.367.822v14.296zm6.875 4.136v-14.3l1.37.826v14.297zm-3.553-2.132v-14.3l1.37.822v14.3zm6.945 4.17V226.44l1.37.82v14.3zm3.216 1.932v-14.297l1.37.823v14.298zm3.332 2.003v-14.297l1.37.822v14.297zm7.108 4.52v-14.3l1.37.826v14.297zm-3.553-2.133v-14.3l1.37.82v14.3zm6.945 4.17v-14.297l1.37.823v14.3zm3.215 1.93v-14.297l1.37.823v14.3zm.904 6.14l-62.87-37.86v-1.5l62.87 37.862zm0 3.567l-62.87-37.86v-1.5l62.87 37.862z"/><g class="J K L T"><path d="M87.415 108.543l37.364-20.107.04 78.272-37.366 20.545z"/><path d="M18.04 66.288L55.407 46.18l69.372 42.255-37.364 20.108z"/><path d="M87.415 108.543l.038 78.7-69.373-41.71-.04-79.256z"/></g><path class="M" d="M87.415 108.543l37.364-20.107.04 78.272-37.366 20.545z"/><path class="N" d="M18.04 66.288L55.407 46.18l69.372 42.255-37.364 20.108z"/><path class="O" d="M87.415 108.543l.038 78.7-69.373-41.71-.04-79.256z"/><path class="J K P Q R" d="M18.04 66.16l69.412 41.625v79.468"/><path class="S" d="M24.58 96.475v-14.3l1.367.822v14.3zm-3.557-2.135v-14.3l1.372.825v14.3zm6.945 4.172v-14.3l1.373.824v14.298zm3.218 1.93V86.146l1.37.822v14.3zm3.332 2.004V88.15l1.367.822v14.297zm7.228 4.243V92.4l1.368.822v14.3zm-3.546-2.137v-14.3l1.373.824v14.3zm6.936 4.173v-14.3l1.373.825v14.297zm3.217 1.93V96.36l1.37.822v14.3zm3.332 2.003V98.363l1.368.823v14.297zm6.875 4.138v-14.3l1.37.822v14.3zm-3.552-2.136v-14.3l1.37.825v14.3zm6.944 4.173v-14.3l1.37.825v14.297zm3.216 1.93v-14.297l1.37.822v14.3zm3.332 2.005v-14.3l1.37.823V123.6zm7.108 4.53V113l1.37.823v14.3zm-3.553-2.146v-14.3l1.37.825v14.3zM79 129.327v-14.3l1.37.825v14.298zm3.216 1.93V116.96l1.37.823v14.3zM24.45 114.934v-14.3l1.367.822v14.3zm-3.556-2.134V98.5l1.373.825v14.3zm6.946 4.17v-14.3l1.372.824v14.297zm3.217 1.932v-14.298l1.37.823v14.3zm3.333 2.004v-14.298l1.368.823v14.297zm7.228 4.24v-14.3l1.367.823v14.3zM38.062 123v-14.3l1.372.824v14.3zm6.945 4.175v-14.3l1.373.825v14.297zm3.218 1.93v-14.298l1.37.823v14.3zm3.332 2.002v-14.296l1.367.822v14.297zm6.875 4.138v-14.3l1.37.823v14.3zm-3.552-2.136v-14.3l1.37.825v14.3zm6.944 4.174v-14.3l1.37.826v14.297zm3.216 1.93v-14.298l1.37.823v14.3zm3.332 2.003V126.93l1.37.823v14.296zm7.108 4.523v-14.3l1.37.822v14.3zm-3.552-2.137v-14.3l1.37.824v14.3zm6.944 4.173v-14.3l1.37.825v14.296zm3.216 1.93V135.42l1.37.822v14.3zM24.45 133.4v-14.3l1.367.826v14.297zm-3.556-2.132v-14.3l1.373.822v14.3zm6.946 4.17v-14.296l1.372.82v14.3zm3.217 1.932v-14.297l1.37.822v14.3zm3.333 2.003v-14.297l1.368.822v14.297zm7.228 4.242v-14.3l1.367.825v14.296zm-3.556-2.135v-14.3l1.372.82v14.302zm6.945 4.172v-14.298l1.373.823v14.3zm3.218 1.93v-14.298l1.37.823v14.3zm3.332 2.004V135.28l1.367.823V150.4zm6.875 4.137v-14.3l1.37.826v14.297zm-3.552-2.134v-14.3l1.37.823v14.3zm6.944 4.17v-14.297l1.37.82v14.3zm3.216 1.93v-14.297l1.37.823v14.3zm3.332 2.005v-14.298l1.37.823v14.297zm7.108 4.52v-14.3l1.37.824v14.3zm-3.552-2.133v-14.3l1.37.82v14.3zm6.944 4.17v-14.297l1.37.822v14.3zm3.216 1.93v-14.297l1.37.823V169zm.902 6.14l-62.87-37.86v-1.5L83 172.807zm0 3.567l-62.87-37.86v-1.5L83 176.382zm-51.808 40.67l-3.234-1.937v-2.1l3.234 1.94z"/><g class="J K L U"><path d="M86.686 93.25l36.936-19.607.007 10.557-36.938 19.608z"/><path d="M18.21 52.103l36.938-19.605 68.475 41.144L86.687 93.25z"/><path d="M86.686 93.25l.005 10.558L18.216 62.66l-.008-10.557z"/></g><path class="M" d="M86.686 93.25l36.936-19.604.007 10.554-36.938 19.608z"/><path class="N" d="M18.21 52.104l36.938-19.606 68.475 41.147L86.687 93.25z"/><path class="O" d="M86.686 93.25l.005 10.558L18.216 62.66l-.008-10.557z"/><path class="J K P Q R" d="M18.54 52.1l68.13 40.937v10.478"/><path class="S" d="M81.322 99.026l-1.918-1.15V95.64l1.918 1.152z"/><g class="J K L U"><path d="M86.95 76.393l36.938-19.608.005 10.558L86.958 86.95z"/><path d="M18.474 35.25L55.41 15.642l68.478 41.143-36.938 19.61z"/><path d="M86.95 76.393l.007 10.558L18.48 45.806l-.007-10.558z"/></g><path class="M" d="M86.95 76.393l36.938-19.605.005 10.558-36.936 19.608z"/><path class="N" d="M18.474 35.25L55.41 15.642l68.478 41.146L86.95 76.394z"/><path class="O" d="M86.95 76.393l.007 10.56L18.48 45.806l-.007-10.557z"/><path class="J K P Q R" d="M18.805 35.255l68.133 40.938V86.67"/><path class="S" d="M81.587 82.173l-1.918-1.15v-2.24l1.918 1.152zm-37.2-9.208l-11.4-6.85V63.43l11.4 6.848zm-.043 4.06l-11.4-6.85V67.49l11.4 6.848zm10.333 6.17l-8.754-5.26v-2.063l8.754 5.26zm-22.84-17.818l-11.398-6.85v-2.7l11.398 6.847zm-.04 4.06l-11.398-6.85V59.9l11.398 6.85zM59.3 86l-3.233-1.936v-2.05L59.3 83.96zM44.098 55.1l-11.4-6.848v-2.687l11.4 6.85zm-.044 4.06l-11.4-6.85v-2.684l11.4 6.85zm10.334 6.172l-8.754-5.26V58l8.754 5.26zm-22.84-17.82l-11.398-6.85v-2.7l11.398 6.85zm-.04 4.06l-11.398-6.85v-2.686l11.398 6.848zm27.517 16.573L55.8 66.198v-2.05l3.234 1.935z"/></svg></g></g></g><g data-cell-id="IonxgJlxe_uOHFbJ8mtl-12"><g><path d="M 457.5 440 L 850 390" fill="none" stroke="rgb(0, 0, 0)" stroke-miterlimit="10" pointer-events="stroke"/></g></g><g data-cell-id="IonxgJlxe_uOHFbJ8mtl-13"><g><path d="M 792.8 565 L 864.5 425.5" fill="none" stroke="rgb(0, 0, 0)" stroke-miterlimit="10" pointer-events="stroke"/></g></g><g data-cell-id="IonxgJlxe_uOHFbJ8mtl-14"><g><ellipse cx="900" cy="390" rx="50" ry="50" fill="#fafafa" stroke="none" pointer-events="all"/><rect x="850" y="340" width="100" height="100" fill="none" stroke="none" pointer-events="all"/><path d="M 867.56 352.67 L 877.1 352.67 L 877.1 365.2 L 857.36 365.2 L 854.9 369.99 L 854.9 380.62 L 851.58 380.62 L 851.04 383.66 L 877.1 383.66 L 877.1 396.07 L 851.14 396.07 L 851.55 399.11 L 854.9 399.11 L 854.9 409.94 L 857.23 414.7 L 877.1 414.7 L 877.1 427.38 L 868.03 427.38 L 871.96 430.43 L 927.86 430.43 L 932.06 427.38 L 924.59 427.38 L 924.59 414.7 L 942.65 414.7 L 946.84 405.38 L 946.84 399.11 L 948.19 399.11 L 948.87 396.07 L 924.59 396.07 L 924.59 383.66 L 948.76 383.66 L 948.22 380.62 L 946.84 380.62 L 946.84 374.33 L 942.82 365.2 L 924.59 365.2 L 924.59 352.67 L 932.27 352.67 L 928.31 349.63 L 871.49 349.63 Z M 880.14 352.67 L 921.55 352.67 L 921.55 365.2 L 880.14 365.2 Z M 857.94 368.24 L 899.35 368.24 L 899.35 380.62 L 857.94 380.62 Z M 902.39 368.24 L 943.8 368.24 L 943.8 380.62 L 902.39 380.62 Z M 880.14 383.66 L 921.55 383.66 L 921.55 396.07 L 880.14 396.07 Z M 857.94 399.11 L 899.35 399.11 L 899.35 411.65 L 857.94 411.65 Z M 902.39 399.11 L 943.8 399.11 L 943.8 411.65 L 902.39 411.65 Z M 880.14 414.7 L 921.55 414.7 L 921.55 427.38 L 880.14 427.38 Z" fill="#005073" stroke="none" pointer-events="all"/><path d="M 867.56 352.67 L 877.1 352.67 L 877.1 365.2 L 857.36 365.2 L 854.9 369.99 L 854.9 380.62 L 851.58 380.62 L 851.04 383.66 L 877.1 383.66 L 877.1 396.07 L 851.14 396.07 L 851.55 399.11 L 854.9 399.11 L 854.9 409.94 L 857.23 414.7 L 877.1 414.7 L 877.1 427.38 L 868.03 427.38 L 871.96 430.43 L 927.86 430.43 L 932.06 427.38 L 924.59 427.38 L 924.59 414.7 L 942.65 414.7 L 946.84 405.38 L 946.84 399.11 L 948.19 399.11 L 948.87 396.07 L 924.59 396.07 L 924.59 383.66 L 948.76 383.66 L 948.22 380.62 L 946.84 380.62 L 946.84 374.33 L 942.82 365.2 L 924.59 365.2 L 924.59 352.67 L 932.27 352.67 L 928.31 349.63 L 871.49 349.63 Z M 880.14 352.67 L 921.55 352.67 L 921.55 365.2 L 880.14 365.2 Z M 857.94 368.24 L 899.35 368.24 L 899.35 380.62 L 857.94 380.62 Z M 902.39 368.24 L 943.8 368.24 L 943.8 380.62 L 902.39 380.62 Z M 880.14 383.66 L 921.55 383.66 L 921.55 396.07 L 880.14 396.07 Z M 857.94 399.11 L 899.35 399.11 L 899.35 411.65 L 857.94 411.65 Z M 902.39 399.11 L 943.8 399.11 L 943.8 411.65 L 902.39 411.65 Z M 880.14 414.7 L 921.55 414.7 L 921.55 427.38 L 880.14 427.38 Z" fill-opacity="0.5" fill="#ffffff" stroke="none" pointer-events="all"/><rect x="850" y="340" width="0" height="0" fill="none" stroke="#005073" pointer-events="all"/><path d="M 926.68 421.47 L 913.91 408.94 L 908.71 414.24 L 904.74 395.13 L 923.98 398.68 L 918.83 403.93 L 931.6 416.46 Z M 898.02 397.16 L 885.49 409.94 L 890.79 415.14 L 871.68 419.11 L 875.22 399.87 L 880.48 405.02 L 893.01 392.24 Z M 873.91 359.09 L 886.68 371.62 L 891.88 366.32 L 895.85 385.43 L 876.61 381.89 L 881.76 376.63 L 868.99 364.1 Z M 902.04 383.25 L 914.57 370.48 L 909.27 365.28 L 928.39 361.31 L 924.84 380.55 L 919.59 375.4 L 907.06 388.17 Z M 900 340 C 872.39 340 850 362.39 850 390 C 850 417.61 872.39 440 900 440 C 927.61 440 950 417.61 950 390 C 950 362.39 927.61 340 900 340 Z M 900 341.27 C 926.92 341.27 948.73 363.08 948.73 390 C 948.73 416.92 926.92 438.73 900 438.73 C 873.08 438.73 851.27 416.92 851.27 390 C 851.27 363.08 873.08 341.27 900 341.27 Z" fill="#005073" stroke="none" pointer-events="all"/></g></g><g data-cell-id="IonxgJlxe_uOHFbJ8mtl-15"><g><ellipse cx="1150.5" cy="380.5" rx="50.5" ry="50.5" fill="#fafafa" stroke="none" pointer-events="all"/><rect x="1100" y="330" width="101" height="101" fill="none" stroke="none" pointer-events="all"/><path d="M 1176.93 411.57 L 1164.18 399.07 L 1158.99 404.36 L 1155.03 385.29 L 1174.23 388.82 L 1169.09 394.07 L 1181.83 406.57 Z M 1148.33 387.32 L 1135.83 400.06 L 1141.12 405.24 L 1122.05 409.21 L 1125.59 390.01 L 1130.83 395.15 L 1143.33 382.41 Z M 1124.27 349.34 L 1137.02 361.83 L 1142.2 356.55 L 1146.17 375.62 L 1126.97 372.08 L 1132.11 366.84 L 1119.37 354.34 Z M 1152.34 373.44 L 1164.84 360.7 L 1159.55 355.51 L 1178.62 351.55 L 1175.08 370.74 L 1169.84 365.6 L 1157.35 378.35 Z M 1150.5 330 C 1122.62 330 1100 352.62 1100 380.5 C 1100 408.38 1122.62 431 1150.5 431 C 1178.38 431 1201 408.38 1201 380.5 C 1201 352.62 1178.38 330 1150.5 330 Z M 1150.5 331.28 C 1177.69 331.28 1199.72 353.31 1199.72 380.5 C 1199.72 407.69 1177.69 429.72 1150.5 429.72 C 1123.31 429.72 1101.28 407.69 1101.28 380.5 C 1101.28 353.31 1123.31 331.28 1150.5 331.28 Z" fill="#005073" stroke="none" pointer-events="all"/></g></g><g data-cell-id="IonxgJlxe_uOHFbJ8mtl-18"><g><path d="M 950 390 L 1100 382.89" fill="none" stroke="rgb(0, 0, 0)" stroke-miterlimit="10" pointer-events="stroke"/></g></g><g data-cell-id="IonxgJlxe_uOHFbJ8mtl-19"><g><path d="M 1176 50 C 1124 50 1111 100 1152.6 110 C 1111 132 1157.8 180 1191.6 160 C 1215 200 1293 200 1319 160 C 1371 160 1371 120 1338.5 100 C 1371 60 1319 20 1273.5 40 C 1241 10 1189 10 1176 50 Z" fill="rgb(255, 255, 255)" stroke="rgb(0, 0, 0)" stroke-miterlimit="10" pointer-events="all"/></g></g><g data-cell-id="IonxgJlxe_uOHFbJ8mtl-20"><g><path d="M 1271 540 C 1215 540 1201 600 1245.8 612 C 1201 638.4 1251.4 696 1287.8 672 C 1313 720 1397 720 1425 672 C 1481 672 1481 624 1446 600 C 1481 552 1425 504 1376 528 C 1341 492 1285 492 1271 540 Z" fill="rgb(255, 255, 255)" stroke="rgb(0, 0, 0)" stroke-miterlimit="10" pointer-events="all"/></g></g><g data-cell-id="IonxgJlxe_uOHFbJ8mtl-21"><g><path d="M 1150.5 330 L 1240.74 189.2" fill="none" stroke="rgb(0, 0, 0)" stroke-miterlimit="10" pointer-events="stroke"/></g></g><g data-cell-id="IonxgJlxe_uOHFbJ8mtl-22"><g><path d="M 1271 540 L 1186.36 416.41" fill="none" stroke="rgb(0, 0, 0)" stroke-miterlimit="10" pointer-events="stroke"/></g></g></g></g></g></svg>